<svg xmlns="http://www.w3.org/2000/svg" width="401" height="127" fill="none" viewBox="0 0 401 127"><path fill="#DDF1F8" d="M96.179 40c0 3.132-2.868 5.837-3.638 8.715-.8 2.98.314 6.76-1.196 9.375-1.53 2.645-5.371 3.567-7.52 5.715-2.148 2.149-3.07 5.99-5.716 7.52-2.614 1.51-6.384.405-9.374 1.196-2.888.77-5.594 3.638-8.715 3.638-3.122 0-5.838-2.868-8.716-3.638-2.98-.8-6.76.314-9.374-1.196-2.645-1.53-3.567-5.371-5.716-7.52-2.148-2.148-5.989-3.07-7.52-5.715-1.51-2.615-.405-6.385-1.195-9.375-.77-2.888-3.638-5.594-3.638-8.715 0-3.121 2.868-5.837 3.638-8.715.8-2.98-.314-6.76 1.196-9.375 1.53-2.645 5.37-3.567 7.52-5.715 2.148-2.149 3.07-5.99 5.715-7.52 2.615-1.51 6.385-.405 9.374-1.196 2.889-.77 5.594-3.638 8.716-3.638 3.121 0 5.837 2.868 8.715 3.638 2.98.8 6.76-.314 9.374 1.196 2.646 1.53 3.568 5.371 5.716 7.52 2.149 2.148 5.99 3.07 7.52 5.715 1.51 2.615.405 6.385 1.196 9.375.77 2.888 3.638 5.594 3.638 8.715Z"/><path fill="#fff" d="m65.766 55.91-4.54 2.828a2.353 2.353 0 0 1-2.493 0l-4.51-2.817a24.372 24.372 0 0 1-11.441-20.654V28.7c0-1.135.81-2.108 1.925-2.32l.578-.102a37.424 37.424 0 0 0 11.26-4.033l1.864-1.034c.7-.385 1.54-.395 2.24-.02l2.199 1.165a37.458 37.458 0 0 0 10.803 3.74l1.662.304a2.35 2.35 0 0 1 1.936 2.32v6.527a24.35 24.35 0 0 1-11.483 20.674v-.01Z"/><path fill="#DDF1F8" d="M60 49.962c5.474 0 9.911-4.438 9.911-9.911 0-5.474-4.437-9.912-9.911-9.912-5.474 0-9.911 4.438-9.911 9.912 0 5.474 4.437 9.911 9.91 9.911Z"/><path fill="#106C89" d="M58.175 44.114a.76.76 0 0 1-.537-.222l-2.928-2.93a.765.765 0 0 1 0-1.074.765.765 0 0 1 1.074 0l2.392 2.392 6.06-6.06a.765.765 0 0 1 1.074 0 .765.765 0 0 1 0 1.074l-6.597 6.598a.76.76 0 0 1-.538.222Z"/><path fill="#106C89" d="M97.77 34c-.74-1.256-1.428-2.452-1.753-3.648-.334-1.267-.334-2.685-.334-4.195 0-2.139 0-4.338-1.044-6.162-1.064-1.845-3-2.95-4.864-4.013-1.288-.74-2.514-1.44-3.416-2.341-.902-.902-1.601-2.129-2.34-3.415-1.065-1.865-2.17-3.8-4.014-4.865-1.814-1.054-4.013-1.054-6.162-1.044-1.5 0-2.928 0-4.195-.334C68.452 3.658 67.256 2.969 66 2.23 64.124 1.135 62.188 0 60 0s-4.125 1.135-6 2.23c-1.256.74-2.452 1.428-3.648 1.753-1.267.334-2.696.334-4.195.334-2.139 0-4.338 0-6.162 1.044-1.844 1.064-2.95 3-4.013 4.865-.74 1.286-1.44 2.513-2.341 3.415-.902.902-2.128 1.601-3.415 2.34-1.865 1.065-3.8 2.17-4.865 4.014-1.054 1.814-1.044 4.023-1.044 6.162 0 1.5 0 2.928-.334 4.195-.325 1.196-1.014 2.392-1.753 3.649C21.135 35.875 20 37.81 20 40c0 2.189 1.135 4.135 2.23 6 .74 1.256 1.428 2.452 1.753 3.648.334 1.267.334 2.685.334 4.195 0 2.139 0 4.338 1.044 6.162 1.064 1.844 3 2.95 4.864 4.013 1.287.74 2.514 1.44 3.416 2.341.902.902 1.601 2.128 2.34 3.416 1.065 1.864 2.17 3.8 4.014 4.864 1.814 1.054 4.013 1.054 6.162 1.044 1.5 0 2.928 0 4.195.334 1.196.325 2.392 1.014 3.649 1.754C55.875 78.864 57.81 80 60 80c2.189 0 4.135-1.135 6-2.23 1.256-.74 2.452-1.428 3.648-1.753 1.267-.334 2.685-.334 4.195-.334 2.139 0 4.338 0 6.162-1.044 1.845-1.064 2.95-3 4.013-4.864.74-1.288 1.44-2.514 2.341-3.416.902-.902 2.128-1.601 3.416-2.34 1.864-1.065 3.79-2.17 4.864-4.014 1.054-1.814 1.044-4.023 1.044-6.162 0-1.5 0-2.928.334-4.195.325-1.196 1.014-2.392 1.754-3.649C98.864 44.125 100 42.19 100 40c0-2.189-1.135-4.135-2.23-6Zm-1.307 11.24c-.75 1.286-1.53 2.624-1.905 4.023-.385 1.46-.385 3.05-.385 4.58 0 2.027 0 3.932-.841 5.392-.862 1.49-2.534 2.452-4.307 3.456-1.318.76-2.686 1.54-3.74 2.584-1.054 1.044-1.834 2.412-2.584 3.74-1.014 1.773-1.966 3.435-3.456 4.306-1.46.842-3.375.842-5.391.842-1.54 0-3.122 0-4.581.385-1.399.375-2.726 1.155-4.023 1.905-1.774 1.034-3.456 2.017-5.24 2.017-1.783 0-3.456-.983-5.24-2.017-1.286-.75-2.624-1.53-4.023-1.905-1.337-.355-2.786-.385-4.195-.385h-.385c-2.017 0-3.932 0-5.392-.841-1.49-.862-2.452-2.534-3.456-4.308-.76-1.317-1.54-2.685-2.584-3.74-1.044-1.043-2.412-1.833-3.74-2.583-1.773-1.014-3.435-1.966-4.306-3.456-.841-1.46-.841-3.375-.841-5.392 0-1.54 0-3.12-.386-4.59-.375-1.399-1.155-2.727-1.905-4.024-1.034-1.773-2.017-3.456-2.017-5.24 0-1.783.983-3.455 2.017-5.239.75-1.287 1.53-2.624 1.905-4.023.386-1.46.386-3.05.386-4.58 0-2.027 0-3.933.84-5.392.862-1.49 2.534-2.453 4.308-3.456 1.317-.76 2.685-1.54 3.74-2.584 1.053-1.044 1.834-2.412 2.584-3.74 1.013-1.773 1.965-3.435 3.455-4.307 1.46-.85 3.375-.84 5.392-.84 1.54 0 3.121 0 4.58-.386 1.399-.375 2.727-1.155 4.024-1.905 1.773-1.034 3.456-2.017 5.24-2.017 1.783 0 3.455.983 5.238 2.017 1.288.75 2.625 1.53 4.024 1.905 1.46.385 3.05.395 4.58.385 2.027 0 3.933 0 5.392.841 1.49.862 2.453 2.534 3.456 4.307.76 1.318 1.54 2.686 2.584 3.74 1.044 1.054 2.412 1.834 3.74 2.584 1.773 1.014 3.435 1.966 4.307 3.456.85 1.46.84 3.375.84 5.391 0 1.54 0 3.122.386 4.581.375 1.399 1.155 2.726 1.905 4.023 1.034 1.774 2.017 3.456 2.017 5.24 0 1.783-.983 3.456-2.017 5.24v.01Z"/><path fill="#106C89" d="M35.485 40.07a24.81 24.81 0 0 1 1.672-12.08.765.765 0 0 0-.416-.992.765.765 0 0 0-.993.415 26.464 26.464 0 0 0-1.783 12.82 26.297 26.297 0 0 0 1.895 7.317.756.756 0 0 0 .993.405.76.76 0 0 0 .405-.993 24.749 24.749 0 0 1-1.783-6.891h.01ZM83.613 26.917a.746.746 0 0 0-.446.973 24.722 24.722 0 0 1 1.267 12.201 24.756 24.756 0 0 1-2.027 6.82.753.753 0 0 0 .375 1.004c.101.05.213.07.314.07a.767.767 0 0 0 .689-.435 26.403 26.403 0 0 0 .8-20.187.746.746 0 0 0-.972-.446ZM44.22 23.218l-.577-1.338 1.743-1.49 1.236.77 1.308-1.125-6.01-3.587-1.621 1.388 2.614 6.496 1.308-1.125v.01Zm-2.006-4.814 2.088 1.307-1.155.993-.973-2.26.04-.03v-.01ZM50.321 18.982l-.82-1.896 1.003-.435c.466-.203.83-.467 1.094-.78.264-.315.416-.68.467-1.065.05-.395-.02-.8-.203-1.226-.183-.416-.426-.75-.75-.983a2.056 2.056 0 0 0-1.084-.405c-.406-.03-.842.05-1.298.243l-2.513 1.084 2.635 6.09 1.47-.638v.01Zm-1.398-5.21c.334-.141.618-.172.861-.08.244.09.426.273.547.557.122.284.132.547.03.79-.1.244-.313.436-.648.578l-.73.314-.8-1.854.73-.315.01.01ZM54.75 15.759c.335.476.75.82 1.247 1.034a3.172 3.172 0 0 0 1.642.223 3.358 3.358 0 0 0 1.56-.558c.446-.314.78-.74 1.014-1.267.223-.537.304-1.165.223-1.885-.081-.73-.284-1.327-.608-1.804a2.878 2.878 0 0 0-1.257-1.033 3.296 3.296 0 0 0-1.642-.223 3.358 3.358 0 0 0-1.56.557c-.446.314-.78.73-1.014 1.267-.233.537-.294 1.165-.223 1.895.081.72.284 1.328.608 1.804l.01-.01Zm1.267-3.486c.233-.365.588-.578 1.064-.629.476-.05.872.081 1.176.396.304.314.486.79.557 1.439.071.648-.01 1.155-.243 1.52-.233.365-.588.577-1.064.628-.476.05-.862-.081-1.166-.395-.304-.314-.486-.79-.557-1.44-.07-.648.02-1.155.253-1.52h-.02ZM66.526 16.306l-2.716-.497.963-5.25-1.581-.283-1.186 6.527 4.287.78.233-1.277ZM71.907 18.576l-2.513-1.145 2.21-4.854-1.46-.66-2.747 6.03 3.963 1.815.547-1.186ZM74.441 22.194c.456.385.943.628 1.48.74.537.111 1.074.06 1.611-.142.547-.203 1.054-.588 1.52-1.145.476-.558.77-1.125.882-1.693a2.929 2.929 0 0 0-.122-1.621 3.256 3.256 0 0 0-.973-1.338 3.348 3.348 0 0 0-1.48-.74 2.846 2.846 0 0 0-1.61.142c-.538.203-1.044.588-1.52 1.145-.467.558-.76 1.115-.882 1.683-.112.567-.081 1.104.121 1.621.193.507.517.963.973 1.348Zm1.044-3.587c.426-.497.841-.791 1.277-.872.436-.081.82.03 1.186.334.364.315.537.68.527 1.115-.02.436-.233.902-.66 1.399-.415.496-.84.79-1.266.871-.426.081-.82-.03-1.186-.334-.364-.304-.537-.68-.527-1.115.01-.436.233-.902.649-1.398ZM45.285 52.698l-6.952.852.75 1.55 1.449-.213.993 2.068-1.064.993.75 1.55 5.016-4.884-.922-1.926-.02.01Zm-2.828 3.385-.658-1.378 2.442-.355.02.05-1.804 1.683ZM50.29 59.59c-.161-.386-.435-.75-.81-1.095a3.348 3.348 0 0 0-1.165-.72 2.21 2.21 0 0 0-1.166-.09c-.375.08-.699.273-.973.577-.344.375-.486.78-.446 1.216.051.446.234.902.568 1.389l.405.587c.213.304.345.558.396.76.05.193.01.365-.112.507a.577.577 0 0 1-.537.183c-.223-.03-.446-.153-.69-.365-.263-.244-.415-.487-.465-.76-.05-.264.02-.527.223-.77l-1.135-1.034c-.517.577-.71 1.175-.598 1.793.111.619.486 1.206 1.094 1.764.608.557 1.206.861 1.794.912.578.05 1.084-.152 1.51-.618.355-.395.517-.831.476-1.308-.04-.476-.243-.993-.638-1.54l-.335-.476a2.315 2.315 0 0 1-.354-.68.485.485 0 0 1 .121-.516.543.543 0 0 1 .477-.172c.192.02.405.131.638.344.233.213.365.426.406.639.04.212-.02.415-.163.608l1.135 1.033c.274-.314.446-.648.497-1.023.05-.375 0-.75-.162-1.135l.01-.01ZM55.55 62.245c-.293-.294-.678-.537-1.155-.73-.476-.182-.922-.264-1.348-.243-.425.02-.8.132-1.114.334a1.873 1.873 0 0 0-.7.892c-.182.466-.172.902.03 1.297.204.395.548.76 1.035 1.085l.587.405c.315.213.527.395.639.568.111.172.142.334.08.506-.07.193-.222.314-.435.365-.213.05-.476.02-.77-.091-.334-.132-.568-.304-.71-.537-.141-.233-.172-.497-.07-.8l-1.43-.558c-.273.73-.242 1.358.092 1.885.334.527.882.952 1.662 1.246.77.294 1.439.365 1.996.203.558-.162.953-.537 1.186-1.125.193-.497.182-.953-.03-1.388-.203-.436-.588-.831-1.145-1.206l-.487-.325c-.253-.172-.446-.334-.568-.506-.121-.173-.152-.345-.07-.527a.538.538 0 0 1 .385-.335c.182-.05.425-.02.72.091.293.112.496.264.607.446a.767.767 0 0 1 .071.618l1.43.558a2 2 0 0 0 .09-1.135c-.08-.365-.273-.7-.557-1.003l-.02.01ZM61.48 62.61l.07 4.317c0 .304-.101.537-.324.72-.223.182-.517.273-.872.283-.354 0-.648-.081-.871-.253a.865.865 0 0 1-.345-.71l-.07-4.317-1.602.03.071 4.378c0 .507.132.923.375 1.267.243.345.568.598.993.77.426.173.912.254 1.48.244.557 0 1.044-.102 1.46-.294.415-.193.739-.456.972-.81.233-.356.345-.781.334-1.278l-.07-4.378-1.592.03h-.01ZM69.648 63.582c.06-.374 0-.77-.183-1.195-.182-.416-.425-.74-.73-.973a1.987 1.987 0 0 0-1.064-.375c-.405-.02-.83.06-1.287.253l-2.523 1.074 2.594 6.101 1.48-.628-.892-2.088.76-.324 2.007 1.611 1.611-.679-2.25-1.783c.274-.294.436-.629.497-1.004l-.02.01Zm-1.703.183c-.122.203-.344.375-.669.517l-.73.314-.709-1.662.73-.304c.679-.284 1.135-.152 1.378.415.122.284.122.527 0 .73v-.01ZM74.025 62.66l-.942-.993 2.027-1.915-.902-.943-2.017 1.916-.942-.983 2.199-2.088-.902-.943-3.355 3.183 4.56 4.813 3.365-3.182-.902-.942-2.189 2.077ZM78.555 52.283c-.628-.294-1.216-.426-1.783-.395a2.716 2.716 0 0 0-1.51.547c-.446.334-.81.8-1.095 1.419l-1.033 2.219 6.01 2.807 1.033-2.22c.284-.607.415-1.195.375-1.752a2.728 2.728 0 0 0-.557-1.51c-.335-.446-.821-.821-1.45-1.115h.01Zm.365 3.85-.334.71-3.537-1.652.324-.689c.244-.517.558-.851.953-.993.395-.152.912-.07 1.56.233.65.304 1.044.649 1.186 1.044.142.395.092.841-.142 1.348h-.01ZM16.897 99.403v8.727h-1.21l-4.436-6.401h-.08v6.401H9.852v-8.727h1.22l4.44 6.409h.08v-6.41h1.304Zm2.658 8.727h-1.397l3.14-8.727h1.522l3.14 8.727h-1.398l-2.467-7.142h-.068l-2.472 7.142Zm.235-3.418h4.534v1.108H19.79v-1.108Zm7.43 3.418v-8.727h3.197c.619 0 1.132.102 1.538.307.406.201.71.475.912.822.202.344.302.732.302 1.163 0 .364-.066.671-.2.921a1.644 1.644 0 0 1-.537.596 2.355 2.355 0 0 1-.733.324v.085c.29.015.573.108.848.282.279.17.509.413.69.728.182.316.273.699.273 1.151 0 .446-.105.847-.315 1.202-.207.352-.529.632-.963.839-.435.205-.99.307-1.666.307H27.22Zm1.317-1.129h1.9c.631 0 1.083-.122 1.356-.367.273-.244.41-.549.41-.916 0-.275-.07-.528-.21-.758a1.485 1.485 0 0 0-.596-.55 1.905 1.905 0 0 0-.912-.205h-1.948v2.796Zm0-3.823h1.765c.295 0 .56-.057.796-.17.239-.114.428-.273.567-.477.142-.208.213-.452.213-.733 0-.361-.126-.664-.38-.908-.252-.244-.64-.367-1.162-.367h-1.799v2.655Zm6.535 4.952v-8.727h1.317v7.593h3.954v1.134h-5.27Zm8.329-1.193-.064.464a7.504 7.504 0 0 1-.217 1.066c-.1.372-.203.717-.311 1.035-.105.318-.192.571-.26.759h-.904c.037-.176.088-.415.154-.716.065-.299.129-.632.191-1.002.063-.369.11-.745.141-1.129l.043-.477H43.4Zm12.185-4.696h-1.33a2.033 2.033 0 0 0-.796-1.3 2.223 2.223 0 0 0-.678-.341 2.635 2.635 0 0 0-.788-.115c-.503 0-.953.127-1.35.379-.396.253-.708.624-.938 1.113-.228.488-.341 1.085-.341 1.789 0 .711.113 1.31.34 1.799.23.488.545.858.942 1.108.398.25.846.375 1.343.375.275 0 .537-.037.784-.111.25-.077.476-.189.677-.337a2.039 2.039 0 0 0 .805-1.282l1.33.004a3.549 3.549 0 0 1-.413 1.184 3.263 3.263 0 0 1-.78.929 3.515 3.515 0 0 1-1.082.601c-.407.142-.85.213-1.33.213-.756 0-1.429-.179-2.02-.537-.59-.36-1.056-.876-1.397-1.546-.339-.671-.508-1.471-.508-2.4 0-.931.17-1.731.512-2.399.34-.67.807-1.184 1.398-1.542.59-.361 1.262-.542 2.015-.542.463 0 .895.067 1.296.2.403.131.765.325 1.086.58.321.253.587.563.797.929.21.364.352.78.426 1.249Zm2.255 5.889h-1.398l3.14-8.727h1.522l3.14 8.727h-1.397l-2.468-7.142h-.068l-2.471 7.142Zm.234-3.418h4.534v1.108h-4.534v-1.108Zm7.43 3.418v-8.727h3.112c.678 0 1.241.123 1.687.37.446.248.78.586 1.001 1.015.222.426.333.906.333 1.44 0 .537-.112 1.02-.337 1.449a2.436 2.436 0 0 1-1.005 1.014c-.447.247-1.008.371-1.684.371h-2.139v-1.117h2.02c.429 0 .777-.074 1.044-.221.267-.151.463-.355.588-.614.125-.258.188-.552.188-.882 0-.33-.063-.622-.188-.878a1.344 1.344 0 0 0-.592-.601c-.267-.145-.62-.217-1.057-.217h-1.654v7.598h-1.316Zm8.751-1.193-.064.464a7.49 7.49 0 0 1-.217 1.066c-.1.372-.203.717-.31 1.035-.106.318-.193.571-.26.759H72.5l.153-.716c.066-.299.13-.632.192-1.002.062-.369.11-.745.14-1.129l.043-.477h1.227Zm10.55-7.534h1.32v5.74c0 .611-.143 1.152-.43 1.623-.287.469-.69.838-1.21 1.108-.52.267-1.13.401-1.828.401-.696 0-1.304-.134-1.824-.401a3.007 3.007 0 0 1-1.21-1.108c-.287-.471-.43-1.012-.43-1.623v-5.74h1.316v5.633c0 .395.087.746.26 1.053.176.307.425.548.746.724.32.174.701.26 1.142.26.443 0 .825-.086 1.146-.26a1.82 1.82 0 0 0 .742-.724c.173-.307.26-.658.26-1.053v-5.633Zm3.235 8.727v-8.727h1.317v4.167h.106l3.66-4.167h1.658l-3.52 3.929 3.533 4.798H93.21l-2.821-3.899-1.031 1.185v2.714H88.04Zm8.706 0h-1.398l3.14-8.727h1.522l3.141 8.727h-1.398l-2.467-7.142h-.069l-2.471 7.142Zm.234-3.418h4.534v1.108h-4.534v-1.108Zm12.121-3.017a1.245 1.245 0 0 0-.563-.937c-.329-.225-.744-.337-1.244-.337a2.31 2.31 0 0 0-.929.171c-.262.11-.465.264-.61.46a1.085 1.085 0 0 0-.213.66c0 .208.049.387.145.537.1.151.229.277.388.38.162.099.335.183.52.251.185.065.362.119.533.162l.852.222c.278.068.564.16.856.277.293.116.564.269.814.46.25.19.452.426.605.707.157.281.235.618.235 1.01 0 .494-.128.933-.384 1.317-.253.383-.62.686-1.103.908-.481.221-1.062.332-1.743.332-.654 0-1.219-.104-1.696-.311-.478-.208-.851-.502-1.121-.882-.27-.384-.419-.838-.448-1.364h1.321c.026.315.128.578.307.788.182.208.414.363.695.465.284.099.595.149.933.149.372 0 .703-.058.993-.175.293-.119.523-.284.69-.494a1.17 1.17 0 0 0 .252-.746.916.916 0 0 0-.222-.635 1.647 1.647 0 0 0-.592-.409 5.72 5.72 0 0 0-.84-.285l-1.031-.282c-.699-.19-1.253-.47-1.662-.839-.406-.369-.609-.858-.609-1.466 0-.503.136-.942.409-1.317a2.687 2.687 0 0 1 1.108-.873 3.79 3.79 0 0 1 1.577-.316c.59 0 1.112.104 1.563.311.455.208.813.493 1.074.857.262.361.398.776.409 1.244h-1.269Zm-66.037 15.546h-1.33a2.035 2.035 0 0 0-.797-1.3 2.223 2.223 0 0 0-.677-.341 2.635 2.635 0 0 0-.789-.115c-.502 0-.953.127-1.35.379-.395.253-.708.624-.938 1.113-.227.488-.34 1.085-.34 1.789 0 .711.113 1.31.34 1.799.23.488.544.858.942 1.108.398.25.845.375 1.342.375.276 0 .537-.037.784-.111a2.26 2.26 0 0 0 .678-.337 2.04 2.04 0 0 0 .805-1.282l1.33.004a3.55 3.55 0 0 1-.413 1.184 3.264 3.264 0 0 1-.78.929 3.515 3.515 0 0 1-1.083.601c-.406.142-.85.213-1.33.213-.755 0-1.428-.179-2.02-.537-.59-.36-1.056-.876-1.397-1.546-.338-.671-.507-1.471-.507-2.4 0-.931.17-1.731.511-2.399.341-.67.807-1.184 1.398-1.542.591-.361 1.263-.542 2.016-.542.463 0 .895.067 1.295.201.404.13.766.324 1.087.579.32.253.586.563.797.929.21.364.352.78.426 1.249Zm4.294 6.021c-.645 0-1.2-.138-1.666-.413a2.807 2.807 0 0 1-1.074-1.172c-.25-.506-.375-1.098-.375-1.777 0-.671.125-1.261.375-1.773.253-.511.605-.91 1.057-1.197.454-.287.986-.431 1.594-.431.369 0 .727.061 1.074.184.346.122.657.313.933.575.275.261.493.601.652 1.018.159.415.238.919.238 1.513v.452h-5.203v-.955h3.955c0-.335-.068-.632-.205-.89a1.54 1.54 0 0 0-.575-.618 1.604 1.604 0 0 0-.86-.226c-.359 0-.671.088-.938.264a1.774 1.774 0 0 0-.614.682 1.967 1.967 0 0 0-.213.908v.745c0 .438.077.81.23 1.117.156.307.374.541.652.703.279.159.604.239.976.239.242 0 .462-.035.66-.103a1.366 1.366 0 0 0 .848-.831l1.206.218c-.096.355-.27.666-.52.933-.247.264-.558.47-.933.618a3.49 3.49 0 0 1-1.274.217Zm4.222-.132v-6.545h1.232v1.039h.068c.12-.352.33-.629.63-.831a1.809 1.809 0 0 1 1.032-.306 5.054 5.054 0 0 1 .541.029v1.219a2.316 2.316 0 0 0-.273-.047c-.13-.02-.261-.03-.392-.03-.3 0-.57.064-.805.192a1.428 1.428 0 0 0-.759 1.283v3.997h-1.274Zm8.048-6.545v1.022h-3.576v-1.022h3.576Zm-2.617-1.569h1.274v6.192c0 .247.037.433.111.558a.578.578 0 0 0 .286.252c.119.042.248.064.388.064.102 0 .191-.007.268-.022l.179-.034.23 1.053a2.526 2.526 0 0 1-.827.136 2.239 2.239 0 0 1-.937-.179 1.61 1.61 0 0 1-.703-.579c-.18-.262-.269-.59-.269-.985v-6.456Zm4.026 8.114v-6.545h1.274v6.545h-1.274Zm.644-7.555a.81.81 0 0 1-.571-.222.722.722 0 0 1-.235-.537c0-.21.078-.389.235-.537.159-.15.349-.226.57-.226a.79.79 0 0 1 .567.226c.16.148.239.327.239.537 0 .207-.08.386-.239.537a.794.794 0 0 1-.566.222Zm5.46 1.01v1.022h-3.7v-1.022h3.7Zm-2.685 6.545v-7.304c0-.409.09-.749.268-1.018.18-.273.416-.476.712-.61.295-.136.616-.204.963-.204.256 0 .474.021.656.064.182.039.317.076.405.11l-.298 1.032a6.597 6.597 0 0 0-.23-.06 1.294 1.294 0 0 0-.341-.038c-.31 0-.531.076-.665.23-.13.153-.196.375-.196.664v7.134h-1.274Zm4 0v-6.545h1.273v6.545h-1.274Zm.643-7.555a.81.81 0 0 1-.571-.222.722.722 0 0 1-.235-.537c0-.21.078-.389.235-.537.159-.15.349-.226.57-.226a.79.79 0 0 1 .567.226c.16.148.239.327.239.537 0 .207-.08.386-.239.537a.794.794 0 0 1-.566.222Zm5.165 7.687c-.644 0-1.2-.138-1.666-.413a2.806 2.806 0 0 1-1.074-1.172c-.25-.506-.375-1.098-.375-1.777 0-.671.125-1.261.375-1.773.253-.511.605-.91 1.057-1.197.455-.287.986-.431 1.594-.431.37 0 .727.061 1.074.184.346.122.657.313.933.575.276.261.493.601.652 1.018.16.415.239.919.239 1.513v.452H71.87v-.955h3.954c0-.335-.068-.632-.204-.89a1.54 1.54 0 0 0-.576-.618 1.604 1.604 0 0 0-.86-.226c-.359 0-.671.088-.938.264a1.774 1.774 0 0 0-.614.682 1.968 1.968 0 0 0-.213.908v.745c0 .438.077.81.23 1.117.157.307.374.541.652.703.279.159.604.239.976.239.242 0 .462-.035.66-.103a1.367 1.367 0 0 0 .848-.831l1.207.218c-.097.355-.27.666-.52.933-.247.264-.558.47-.933.618a3.49 3.49 0 0 1-1.275.217Zm6.673-.004c-.529 0-1-.135-1.415-.405-.412-.273-.736-.66-.972-1.163-.233-.506-.35-1.113-.35-1.82 0-.707.119-1.312.355-1.815.238-.503.565-.888.98-1.155a2.55 2.55 0 0 1 1.41-.401c.407 0 .733.069.98.205.25.133.444.29.58.469.14.179.247.336.324.473h.076v-3.243h1.275v8.727h-1.245v-1.018h-.106a3.383 3.383 0 0 1-.333.477 1.853 1.853 0 0 1-.588.469c-.25.133-.574.2-.971.2Zm.28-1.087c.367 0 .677-.096.93-.29.256-.196.449-.467.58-.813.133-.347.2-.75.2-1.211 0-.454-.066-.852-.196-1.193a1.756 1.756 0 0 0-.576-.797c-.252-.19-.565-.285-.937-.285-.384 0-.703.099-.959.298-.256.199-.449.47-.58.814a3.316 3.316 0 0 0-.191 1.163c0 .438.065.831.196 1.181.13.349.324.626.58.831.258.201.576.302.954.302Z"/><path fill="#DDF1F8" d="M200.5 76.374c20.088 0 36.374-16.285 36.374-36.374 0-20.089-16.286-36.374-36.374-36.374-20.089 0-36.374 16.285-36.374 36.374 0 20.089 16.285 36.374 36.374 36.374Z"/><path fill="#fff" d="M200.5 55.255c8.425 0 15.255-6.83 15.255-15.255s-6.83-15.255-15.255-15.255-15.255 6.83-15.255 15.255 6.83 15.255 15.255 15.255Z"/><path fill="#106C89" d="m182.828 25.494-1.709-1.448.52-.62 2.477.53 1.109-1.319-2.777-.569c.11-.38.11-.75 0-1.099-.11-.36-.34-.68-.689-.969-.34-.29-.699-.47-1.069-.53a2.04 2.04 0 0 0-1.109.14c-.37.16-.709.42-1.019.8l-1.748 2.058 4.995 4.225 1.019-1.209v.01Zm-2.158-2.837-.5.6-1.358-1.15.499-.598c.47-.56.929-.64 1.389-.25.23.2.34.41.33.64-.01.229-.13.489-.36.758ZM189.741 19.5l-.729-1.058-2.458 1.688-.759-1.109 2.258-1.559-.73-1.058-2.257 1.558-.76-1.109 2.458-1.688-.729-1.06-3.756 2.588 3.696 5.385 3.766-2.578ZM194.945 17.453l-.439-1.21-2.558.94-1.798-4.945-1.488.55 2.238 6.143 4.045-1.479ZM196.713 10.569l-1.559.248 1.029 6.462 1.559-.248-1.029-6.462ZM201 15.475l2.247.15.34 1.398 1.698.11-1.758-6.673-2.098-.14-2.637 6.373 1.698.11.52-1.338-.01.01Zm1.328-3.437h.05l.57 2.368-1.499-.1.879-2.268ZM210.171 18.731c.369-.03.689-.14.959-.33.269-.19.459-.449.589-.779.11-.29.15-.57.1-.839-.04-.26-.15-.5-.31-.7a1.54 1.54 0 0 0-.609-.459l.02-.06c.359.06.699.01.999-.14.3-.15.519-.399.649-.749.18-.46.14-.899-.1-1.318-.239-.42-.709-.76-1.388-1.02l-2.548-.978-2.337 6.103 2.737 1.05c.449.17.859.25 1.239.22Zm-.61-5.634.839.32c.25.09.42.23.52.4.1.169.11.359.03.569-.08.21-.22.35-.42.41-.2.06-.419.04-.669-.05l-.819-.31.509-1.34h.01Zm-.879 2.288.939.36c.28.11.48.259.59.459.109.2.119.42.029.65-.079.219-.219.359-.419.419-.2.06-.46.03-.779-.09l-.909-.35.559-1.458-.01.01ZM215.445 22.438l.75-1.03-2.198-1.598 3.087-4.255-1.279-.93-3.846 5.295 3.486 2.518ZM223.228 23.357l.979-.82-2.907-3.506-5.035 4.176 2.917 3.506.989-.819-1.908-2.288 1.039-.859 1.748 2.108.989-.819-1.748-2.108 1.028-.86 1.909 2.289ZM186.145 57.712c-.13-.52-.39-.999-.79-1.428a3.208 3.208 0 0 0-1.368-.9 2.8 2.8 0 0 0-1.599-.05c-.559.14-1.099.45-1.618.94-.53.49-.879.999-1.059 1.538a2.82 2.82 0 0 0-.08 1.599c.13.519.39.999.789 1.428.28.3.58.53.909.71l-.1.789.97 1.049.219-1.519c.42.04.849-.03 1.299-.19.44-.16.869-.44 1.289-.829.529-.49.879-1.009 1.059-1.548.179-.54.199-1.08.07-1.599l.01.01Zm-1.429.67c-.07.43-.34.859-.809 1.288-.45.42-.889.65-1.309.7l.1-.65-.869-.939-.23 1.279c-.06-.05-.12-.1-.17-.16-.319-.35-.449-.73-.379-1.159.07-.43.329-.859.809-1.288.479-.43.919-.67 1.349-.7.429-.03.799.12 1.118.47.32.35.45.729.38 1.159h.01ZM191.629 61.049l-2.048 3.736a.85.85 0 0 1-.629.46c-.28.05-.57-.01-.889-.19-.31-.17-.52-.38-.63-.64a.861.861 0 0 1 .05-.779l2.048-3.736-1.388-.76-2.078 3.787c-.24.44-.34.86-.3 1.269.04.41.2.799.48 1.149.279.35.659.669 1.148.929.48.26.949.42 1.399.46.45.04.859-.03 1.229-.22.369-.19.669-.5.909-.94l2.078-3.786-1.379-.749v.01ZM195.765 62.477l-3.327 6.044 1.669.3.669-1.279 2.218.4.18 1.429 1.668.3-1.009-6.824-2.068-.37Zm-.41 3.956 1.119-2.147h.05l.31 2.417-1.479-.27ZM202.908 68.152l-.58-5.225-1.568.17.719 6.503 4.276-.48-.15-1.268-2.697.3ZM207.549 61.793l-1.505.478 1.982 6.236 1.504-.478-1.981-6.236ZM213.917 59.94l-.64-1.109-4.785 2.777.639 1.11 1.719-1 2.637 4.546 1.349-.78-2.638-4.545 1.719-.999ZM217.953 53.906l-1.199 1.309 1.089 2.867-.04.04-2.947-.83-1.199 1.31 4.835 1.168 1.608 1.479 1.059-1.16-1.608-1.478-1.598-4.705ZM203.397 50.93c.27-.27.45-.61.54-.98.119.02.229.03.349.03.51 0 1.019-.19 1.409-.58.28-.28.449-.619.529-.978a1.966 1.966 0 0 0 1.759-.56c.279-.28.449-.62.529-.979.12.02.23.03.35.03.509 0 1.019-.19 1.408-.58a1.98 1.98 0 0 0 0-2.816l-7.462-7.463a.645.645 0 0 0-.909 0c-.25.25-.25.66 0 .91l7.462 7.462c.13.13.21.31.21.5 0 .189-.07.369-.21.499a.712.712 0 0 1-1.009 0l-2.867-2.867a.645.645 0 0 0-1.099.459c0 .17.06.33.19.46l2.487 2.487c.28.28.28.73 0 1a.73.73 0 0 1-1.009 0l-2.107-2.109a.62.62 0 0 0-.46-.19c-.1 0-.2.03-.3.08a.55.55 0 0 0-.159.11c-.13.13-.19.29-.19.46 0 .17.06.33.19.46l1.718 1.718c.28.28.28.729 0 1.008a.712.712 0 0 1-1.009 0l-1.339-1.338a.619.619 0 0 0-.459-.19c-.1 0-.2.03-.3.08a.57.57 0 0 0-.16.11c-.13.13-.19.29-.19.46 0 .17.06.33.19.459l.959.959c.28.28.28.73 0 1.009a.712.712 0 0 1-1.009 0 .645.645 0 0 0-.909 0c-.25.25-.25.66 0 .91.39.389.899.578 1.409.578.509 0 1.019-.19 1.408-.579l.06-.03Z"/><path fill="#106C89" d="M199.951 46.723c-.22-.22-.47-.36-.74-.46a1.988 1.988 0 0 0-.419-2.217c-.37-.37-.849-.56-1.339-.58-.02-.489-.21-.968-.579-1.338-.6-.6-1.489-.73-2.218-.41-.1-.27-.25-.52-.46-.739a2.002 2.002 0 0 0-2.827 0l-1.918 1.918a2.002 2.002 0 0 0 0 2.827c.36.36.829.56 1.339.58.02.49.21.969.579 1.338.37.37.849.56 1.339.58.02.49.21.969.579 1.338.37.37.849.56 1.339.58.02.49.21.969.579 1.338.38.38.879.58 1.409.58.529 0 1.039-.21 1.408-.58l1.919-1.918a2.002 2.002 0 0 0 0-2.827l.01-.01Zm-8.572-1.908a.718.718 0 0 1-.999 0 .71.71 0 0 1-.21-.5c0-.19.07-.369.21-.499l1.918-1.918a.712.712 0 0 1 1.009 0c.28.28.28.73 0 1l-1.918 1.917h-.01Zm.909 1.908a.7.7 0 0 1 0-.999l2.688-2.687a.713.713 0 1 1 1.009 1.009l-2.678 2.677a.712.712 0 0 1-1.009 0h-.01Zm1.918 1.918a.713.713 0 0 1 0-1.009l2.678-2.677a.701.701 0 0 1 .999 0c.13.13.209.31.209.5s-.07.37-.209.499l-2.678 2.677a.712.712 0 0 1-1.009 0l.01.01Zm4.835 0-1.918 1.918a.718.718 0 0 1-.999 0 .7.7 0 0 1 0-.999l1.918-1.918c.28-.28.73-.28 1.009 0 .13.13.21.31.21.5s-.07.37-.21.5h-.01ZM193.048 33.746c.569 0 1.139-.08 1.698-.24l1.059-.3a.644.644 0 1 0-.36-1.238l-1.059.3c-.779.22-1.588.24-2.377.07.26-.61-.02-1.309-.62-1.569l-2.487-1.069c-.6-.26-1.299.02-1.559.62l-3.856 8.95c-.259.6.02 1.3.62 1.56l2.487 1.068c.15.06.31.1.47.1.15 0 .299-.03.439-.08.17-.07.31-.17.42-.3l.799.37a.628.628 0 0 0 .849-.32.64.64 0 0 0-.319-.849l-.76-.35 2.987-6.922c.51.13 1.019.22 1.539.22l.03-.02Zm-5.954 6.753-.07.16-2.298-.989 3.776-8.76 2.298.988-3.706 8.601ZM194.446 36.953c0 .45.17.87.49 1.189a2.844 2.844 0 0 0 4.036 0l1.878-1.868c.1-.1.169-.24.189-.38l.1-.83a.655.655 0 0 0-.559-.718c-.35-.05-.669.21-.719.56l-.07.608-1.719 1.709c-.619.61-1.608.61-2.227 0a.392.392 0 0 1-.11-.28c0-.11.04-.2.16-.33l3.007-3.756a.954.954 0 0 1 .669-.36l3.047-.29c.27-.02.539.02.789.14l1.798.84c1.319.57 2.718.919 4.146 1.059l3.147 7.292-1.279.57a.641.641 0 0 0 .26 1.229c.09 0 .18-.02.26-.06l1.328-.59c.23.24.54.39.87.39.159 0 .319-.03.469-.1l2.488-1.069a1.193 1.193 0 0 0 .619-1.558l-3.856-8.951a1.15 1.15 0 0 0-.65-.63 1.194 1.194 0 0 0-.909.01l-2.487 1.07c-.43.189-.689.609-.709 1.048a12.407 12.407 0 0 1-3.177-.889l-1.778-.83c-.45-.209-.96-.299-1.449-.249l-3.047.29c-.609.06-1.179.36-1.558.839l-2.957 3.696c-.32.32-.49.74-.49 1.19v.009Zm18.062-4.955 3.776 8.761-2.298.99-3.776-8.762 2.298-.989Z"/><path fill="#106C89" d="M200.5 0c-22.058 0-40 17.942-40 40s17.942 40 40 40 40-17.942 40-40-17.942-40-40-40Zm0 78.492c-21.219 0-38.492-17.263-38.492-38.492 0-21.229 17.273-38.482 38.492-38.482 21.219 0 38.492 17.263 38.492 38.492 0 21.229-17.263 38.491-38.492 38.491v-.01Z"/><path fill="#106C89" d="M173.457 40.999c0-4.106 1.009-8.172 2.927-11.768.2-.37.06-.83-.309-1.02a.759.759 0 0 0-1.029.31A26.57 26.57 0 0 0 171.939 41a26.55 26.55 0 0 0 3.526 13.237.76.76 0 0 0 1.039.28c.36-.21.49-.67.28-1.03A25.013 25.013 0 0 1 173.457 41ZM225.955 28.521a.76.76 0 0 0-1.029-.31.75.75 0 0 0-.31 1.02 25.076 25.076 0 0 1 2.927 11.768c0 4.645-1.279 9.17-3.696 13.107a.75.75 0 0 0 .249 1.039c.12.08.26.11.4.11.25 0 .5-.13.649-.36A26.459 26.459 0 0 0 229.071 41c0-4.346-1.078-8.661-3.106-12.478h-.01ZM168.058 108.13l-2.42-8.727h1.385l1.7 6.758h.081l1.768-6.758h1.373l1.768 6.763h.081l1.696-6.763h1.389l-2.424 8.727h-1.326l-1.836-6.537h-.069l-1.836 6.537h-1.33Zm12.096.132c-.645 0-1.2-.138-1.666-.413a2.808 2.808 0 0 1-1.074-1.172c-.25-.506-.375-1.098-.375-1.777 0-.671.125-1.261.375-1.773.253-.511.605-.91 1.057-1.197.454-.287.986-.431 1.594-.431.369 0 .727.061 1.073.184.347.122.658.313.934.575.275.261.493.601.652 1.018.159.415.238.919.238 1.513v.452h-5.203v-.955h3.955a1.87 1.87 0 0 0-.205-.89 1.537 1.537 0 0 0-.575-.618 1.603 1.603 0 0 0-.861-.226c-.358 0-.67.088-.937.264a1.769 1.769 0 0 0-.614.682 1.968 1.968 0 0 0-.213.908v.745c0 .438.077.81.23 1.117.156.307.374.541.652.703.278.159.604.239.976.239.241 0 .462-.035.66-.103a1.356 1.356 0 0 0 .848-.831l1.206.218a2.176 2.176 0 0 1-.519.933c-.248.264-.559.47-.934.618a3.49 3.49 0 0 1-1.274.217Zm5.496-8.86v8.728h-1.274v-8.727h1.274Zm2.988 0v8.728h-1.274v-8.727h1.274Zm5.571 4.488v1.104h-3.869v-1.104h3.869Zm4.754-2.305v1.022h-3.576v-1.022h3.576Zm-2.617-1.569h1.274v6.192c0 .247.037.433.111.558a.577.577 0 0 0 .286.252c.119.042.248.064.387.064.103 0 .192-.007.269-.022a7.57 7.57 0 0 0 .179-.034l.23 1.053a2.534 2.534 0 0 1-.827.136 2.237 2.237 0 0 1-.937-.179 1.608 1.608 0 0 1-.703-.579c-.179-.262-.269-.59-.269-.985v-6.456Zm4.026 8.114v-6.545h1.232v1.039h.068a1.58 1.58 0 0 1 .631-.831 1.806 1.806 0 0 1 1.031-.306 5.063 5.063 0 0 1 .541.029v1.219a2.3 2.3 0 0 0-.273-.047c-.13-.02-.261-.03-.392-.03a1.66 1.66 0 0 0-.805.192 1.425 1.425 0 0 0-.759 1.283v3.997h-1.274Zm6.452.145c-.415 0-.79-.077-1.125-.23a1.892 1.892 0 0 1-.797-.678c-.193-.295-.29-.657-.29-1.086 0-.37.071-.674.213-.912.142-.239.334-.428.576-.567.241-.139.511-.244.809-.315.299-.071.603-.125.912-.162l.955-.111c.244-.031.422-.081.532-.149.111-.069.167-.179.167-.333v-.03c0-.372-.106-.66-.316-.865-.207-.204-.517-.306-.929-.306-.429 0-.767.095-1.014.285-.244.188-.413.396-.507.627l-1.198-.273c.143-.398.35-.719.623-.963.275-.247.592-.426.95-.537a3.697 3.697 0 0 1 1.129-.171c.262 0 .539.032.831.094.296.06.571.171.827.332.258.162.47.394.635.695.165.298.247.686.247 1.163v4.347h-1.244v-.895h-.051a1.818 1.818 0 0 1-.371.486 1.977 1.977 0 0 1-.635.396 2.466 2.466 0 0 1-.929.158Zm.277-1.023c.352 0 .653-.069.903-.209.253-.139.445-.321.576-.545.133-.227.2-.47.2-.729v-.844a.654.654 0 0 1-.264.128c-.128.037-.275.07-.439.098l-.482.073-.392.051a3.125 3.125 0 0 0-.677.158c-.202.073-.364.18-.486.319-.12.137-.179.318-.179.546 0 .315.116.554.349.716.233.159.53.238.891.238Zm4.65.878v-6.545h1.274v6.545h-1.274Zm.644-7.555a.808.808 0 0 1-.571-.222.72.72 0 0 1-.235-.537c0-.21.078-.39.235-.537a.8.8 0 0 1 .571-.226c.221 0 .41.076.566.226a.706.706 0 0 1 .239.537c0 .207-.08.386-.239.537a.793.793 0 0 1-.566.222Zm3.618 3.669v3.886h-1.274v-6.545h1.223v1.065h.081c.151-.347.387-.625.708-.835.324-.211.731-.316 1.223-.316.446 0 .836.094 1.172.282.335.184.595.46.779.826.185.367.277.82.277 1.36v4.163h-1.274v-4.01c0-.474-.123-.845-.37-1.112-.248-.27-.587-.405-1.019-.405-.295 0-.558.064-.788.192a1.371 1.371 0 0 0-.541.562c-.131.245-.197.54-.197.887Zm8.719 4.018c-.645 0-1.2-.138-1.666-.413a2.808 2.808 0 0 1-1.074-1.172c-.25-.506-.375-1.098-.375-1.777 0-.671.125-1.261.375-1.773.253-.511.605-.91 1.057-1.197.455-.287.986-.431 1.594-.431.369 0 .727.061 1.074.184.346.122.657.313.933.575.275.261.493.601.652 1.018.159.415.238.919.238 1.513v.452h-5.203v-.955h3.955a1.87 1.87 0 0 0-.205-.89 1.537 1.537 0 0 0-.575-.618 1.603 1.603 0 0 0-.861-.226c-.358 0-.67.088-.937.264a1.777 1.777 0 0 0-.614.682 1.968 1.968 0 0 0-.213.908v.745c0 .438.077.81.23 1.117.156.307.374.541.652.703.279.159.604.239.976.239.242 0 .462-.035.661-.103a1.37 1.37 0 0 0 .848-.831l1.206.218c-.097.355-.27.666-.52.933-.248.264-.559.47-.934.618a3.486 3.486 0 0 1-1.274.217Zm6.672-.004c-.528 0-1-.135-1.414-.405-.412-.273-.736-.66-.972-1.163-.233-.506-.349-1.113-.349-1.82 0-.707.118-1.312.353-1.815.239-.503.566-.888.98-1.155a2.55 2.55 0 0 1 1.411-.401c.406 0 .733.069.98.205.25.133.443.29.58.469.139.179.247.336.324.473h.076v-3.243h1.274v8.727h-1.244v-1.018h-.106a3.41 3.41 0 0 1-.333.477 1.853 1.853 0 0 1-.588.469c-.25.133-.574.2-.972.2Zm.282-1.087c.366 0 .676-.096.929-.29.255-.196.449-.467.579-.813.134-.347.201-.75.201-1.211a3.34 3.34 0 0 0-.196-1.193 1.759 1.759 0 0 0-.576-.797c-.253-.19-.565-.285-.937-.285-.384 0-.703.099-.959.298-.256.199-.449.47-.58.814a3.338 3.338 0 0 0-.191 1.163c0 .438.065.831.196 1.181.13.349.323.626.579.831.259.201.577.302.955.302Zm-49.845 15.959h-1.398l3.14-8.727h1.522l3.14 8.727h-1.397l-2.468-7.142h-.068l-2.471 7.142Zm.234-3.418h4.534v1.108h-4.534v-1.108Zm9.967 6.009c-.52 0-.967-.068-1.342-.205a2.59 2.59 0 0 1-.912-.541 2.256 2.256 0 0 1-.528-.737l1.095-.452c.076.125.179.257.307.397.13.142.306.262.528.362.224.099.513.149.865.149.483 0 .882-.118 1.197-.354.316-.233.473-.605.473-1.116v-1.287h-.08a2.911 2.911 0 0 1-.333.464 1.789 1.789 0 0 1-.588.443c-.25.125-.575.188-.976.188-.517 0-.983-.121-1.398-.362-.411-.245-.738-.604-.98-1.078-.238-.478-.358-1.064-.358-1.76s.118-1.293.354-1.79c.239-.497.565-.878.98-1.142a2.55 2.55 0 0 1 1.411-.401c.406 0 .734.069.984.205.25.133.445.29.584.469.142.179.251.336.328.473h.094v-1.061h1.248v6.69c0 .562-.13 1.024-.392 1.385a2.3 2.3 0 0 1-1.061.801c-.443.173-.943.26-1.5.26Zm-.013-3.746c.367 0 .677-.085.929-.256a1.59 1.59 0 0 0 .58-.741c.134-.324.2-.712.2-1.163 0-.441-.065-.828-.196-1.164a1.726 1.726 0 0 0-.575-.784c-.253-.19-.565-.285-.938-.285-.383 0-.703.099-.958.298a1.8 1.8 0 0 0-.58.801 3.181 3.181 0 0 0-.192 1.134c0 .429.066.805.196 1.129.131.324.324.577.58.758.258.182.577.273.954.273Zm7.496 1.287c-.645 0-1.2-.138-1.666-.413a2.808 2.808 0 0 1-1.074-1.172c-.25-.506-.375-1.098-.375-1.777 0-.671.125-1.261.375-1.773.253-.511.605-.91 1.057-1.197.455-.287.986-.431 1.594-.431.369 0 .727.061 1.074.184.346.122.657.313.933.575.275.261.493.601.652 1.018.159.415.238.919.238 1.513v.452h-5.203v-.955h3.955a1.87 1.87 0 0 0-.205-.89 1.537 1.537 0 0 0-.575-.618 1.603 1.603 0 0 0-.861-.226c-.358 0-.67.088-.937.264a1.777 1.777 0 0 0-.614.682 1.968 1.968 0 0 0-.213.908v.745c0 .438.077.81.23 1.117.156.307.374.541.652.703.279.159.604.239.976.239.241 0 .462-.035.661-.103a1.37 1.37 0 0 0 .848-.831l1.205.218a2.176 2.176 0 0 1-.519.933c-.248.264-.559.47-.934.618a3.49 3.49 0 0 1-1.274.217Zm5.496-4.018v3.886h-1.274v-6.545h1.223v1.065h.081c.151-.347.387-.625.708-.835.323-.211.731-.316 1.223-.316.446 0 .836.094 1.171.282.336.184.596.46.78.826.185.367.277.82.277 1.36v4.163h-1.274v-4.01c0-.474-.123-.845-.371-1.112-.247-.27-.586-.405-1.018-.405-.296 0-.558.064-.788.192a1.38 1.38 0 0 0-.542.562c-.13.245-.196.54-.196.887Zm8.953-2.659v1.022h-3.575v-1.022h3.575Zm-2.616-1.569h1.274v6.192c0 .247.037.433.111.558a.58.58 0 0 0 .285.252c.12.042.249.064.388.064.102 0 .192-.007.269-.022l.179-.034.23 1.053a2.516 2.516 0 0 1-.827.136 2.234 2.234 0 0 1-.937-.179 1.61 1.61 0 0 1-.704-.579c-.179-.262-.268-.59-.268-.985v-6.456Zm8.825 3.167-1.155.204a1.367 1.367 0 0 0-.23-.422 1.138 1.138 0 0 0-.417-.328 1.518 1.518 0 0 0-.661-.128c-.361 0-.662.081-.903.243-.242.159-.362.365-.362.618 0 .219.081.395.242.528.162.134.424.243.785.329l1.039.238c.603.139 1.051.354 1.347.644.295.289.443.666.443 1.129 0 .392-.114.741-.341 1.048-.224.304-.538.543-.942.716-.4.173-.865.26-1.393.26-.733 0-1.331-.156-1.794-.469-.463-.315-.747-.762-.852-1.342l1.231-.187c.077.321.235.563.473.728.239.162.55.243.933.243.418 0 .752-.087 1.002-.26.25-.176.375-.39.375-.643a.67.67 0 0 0-.23-.516c-.151-.139-.382-.244-.695-.315l-1.108-.243c-.611-.139-1.062-.361-1.355-.665-.29-.304-.435-.689-.435-1.155 0-.386.108-.724.324-1.014.216-.29.514-.516.895-.678a3.28 3.28 0 0 1 1.308-.247c.708 0 1.265.154 1.671.461.406.304.675.711.805 1.223Z"/><path fill="#DDF1F8" d="m338.566 4.564-19.11 6.959a7.13 7.13 0 0 0-3.733 3.134L305.56 32.266a7.127 7.127 0 0 0-.842 4.797l3.53 20.023a7.175 7.175 0 0 0 2.434 4.22l15.58 13.075a7.109 7.109 0 0 0 4.575 1.663h20.337a7.108 7.108 0 0 0 4.574-1.663l15.581-13.075a7.145 7.145 0 0 0 2.434-4.22l3.53-20.023a7.08 7.08 0 0 0-.842-4.797l-10.164-17.609a7.132 7.132 0 0 0-3.732-3.134l-19.11-6.959a7.17 7.17 0 0 0-4.869 0h-.01Z"/><path fill="#fff" d="M341 61.245c11.187 0 20.256-9.069 20.256-20.256S352.187 20.733 341 20.733s-20.256 9.069-20.256 20.256S329.813 61.245 341 61.245Z"/><path fill="#106C89" d="m380.346 31.079-11.097-19.221a8.519 8.519 0 0 0-4.473-3.754L343.921.517a8.505 8.505 0 0 0-5.842 0l-20.855 7.587a8.53 8.53 0 0 0-4.473 3.754l-11.097 19.221a8.56 8.56 0 0 0-1.014 5.751l3.854 21.849a8.55 8.55 0 0 0 2.922 5.061l17 14.262A8.552 8.552 0 0 0 329.903 80h22.194c2.008 0 3.956-.71 5.487-1.998l17-14.262a8.55 8.55 0 0 0 2.922-5.061l3.854-21.849a8.55 8.55 0 0 0-1.014-5.751Zm-.518 5.487-3.854 21.85a6.999 6.999 0 0 1-2.394 4.138l-17 14.261a6.994 6.994 0 0 1-4.493 1.633h-22.194a6.992 6.992 0 0 1-4.493-1.633l-17-14.261a6.999 6.999 0 0 1-2.394-4.139l-3.855-21.849a6.993 6.993 0 0 1 .832-4.706l11.097-19.221a6.99 6.99 0 0 1 3.662-3.074l20.854-7.587a7.03 7.03 0 0 1 4.778 0l20.854 7.587a6.993 6.993 0 0 1 3.662 3.074l11.097 19.221a6.998 6.998 0 0 1 .831 4.706h.01Z"/><path fill="#106C89" d="M341.811 52.34h8.085a2.5 2.5 0 0 0 2.495-2.496c0-.395-.102-.76-.264-1.085.984-.335 1.704-1.258 1.704-2.353 0-.67-.264-1.279-.7-1.725a2.5 2.5 0 0 0 .7-1.724c0-.67-.264-1.278-.7-1.725a2.5 2.5 0 0 0 .7-1.724 2.5 2.5 0 0 0-2.495-2.495h-4.859c.406-1.35.974-3.753.589-5.873-.528-2.891-3.135-3.226-4.453-3.003a.785.785 0 0 0-.639.68c0 .071-.812 6.34-5.528 8.257v-.183a1.74 1.74 0 0 0-1.735-1.734h-4.798a1.74 1.74 0 0 0-1.734 1.734v13.724a1.74 1.74 0 0 0 1.734 1.734h4.798a1.73 1.73 0 0 0 1.714-1.51l3.266 1.145a6.3 6.3 0 0 0 2.12.365v-.01Zm-6.927-1.735a.182.182 0 0 1-.183.182h-4.798a.182.182 0 0 1-.182-.182V36.88c0-.102.081-.183.182-.183h4.798c.101 0 .183.081.183.183v13.724Zm1.562-11.908c5.122-1.654 6.603-7.172 6.968-9.079.7.01 1.846.274 2.12 1.786.375 2.049-.345 4.554-.69 5.599h-2.099a.781.781 0 0 0-.781.78c0 .437.344.782.781.782h8.591c.517 0 .943.426.943.943a.948.948 0 0 1-.943.943h-1.877a.781.781 0 0 0 0 1.563h1.877c.517 0 .943.425.943.943a.948.948 0 0 1-.943.943h-1.877a.781.781 0 0 0 0 1.562h1.877c.517 0 .943.426.943.944a.948.948 0 0 1-.943.943h-1.877a.781.781 0 0 0 0 1.562h.437c.517 0 .943.426.943.943a.948.948 0 0 1-.943.944h-8.085a4.795 4.795 0 0 1-1.602-.274l-3.763-1.319V38.697ZM321.2 27.813l-.903-1.156 1.309-1.887 1.4.436.983-1.42-6.735-1.927-1.217 1.755 4.189 5.619.984-1.42h-.01Zm-3.205-4.108.03-.04 2.353.73-.872 1.257-1.521-1.947h.01ZM322.357 20.773c.446.569.943.974 1.47 1.197.528.224 1.065.305 1.603.213.538-.08 1.045-.314 1.511-.69a3.43 3.43 0 0 0 .822-.912 2.756 2.756 0 0 0 .345-1.968 2.576 2.576 0 0 0-.335-.842l-1.278.994c.152.284.193.568.132.852-.071.284-.243.528-.517.75-.376.295-.771.396-1.197.295-.426-.091-.842-.396-1.258-.913-.396-.497-.588-.974-.588-1.42 0-.446.192-.822.568-1.116.284-.223.578-.335.882-.314.304.02.568.142.801.375l1.268-1.004c-.375-.386-.771-.64-1.217-.76a2.498 2.498 0 0 0-1.339-.031 3.328 3.328 0 0 0-1.308.659 3.269 3.269 0 0 0-1.015 1.298c-.213.497-.263 1.035-.172 1.603.091.568.365 1.146.822 1.714v.02ZM330.035 17.558c.436.386.923.609 1.461.7.537.091 1.085.02 1.653-.193.426-.162.781-.365 1.065-.619.284-.253.497-.527.649-.831a2.672 2.672 0 0 0 .213-1.836l-1.521.558c.061.314.01.598-.142.852-.152.243-.396.436-.72.558-.447.162-.852.142-1.228-.082-.375-.223-.679-.639-.913-1.257-.223-.599-.263-1.106-.121-1.532.131-.426.426-.72.882-.893.345-.121.649-.142.933-.03.284.101.497.304.649.609l1.522-.569c-.233-.476-.538-.841-.923-1.105a2.532 2.532 0 0 0-1.268-.436c-.467-.04-.954.04-1.451.223a3.25 3.25 0 0 0-1.359.923 2.792 2.792 0 0 0-.659 1.48c-.081.569 0 1.198.254 1.888.253.68.598 1.217 1.034 1.592h-.01ZM337.348 15.763c.254.334.589.578 1.025.74.436.162.923.223 1.481.193s1.044-.142 1.45-.345c.416-.203.731-.477.944-.842.213-.365.314-.791.294-1.288l-.213-4.382-1.593.081.213 4.321c.01.305-.081.548-.304.73-.213.193-.507.295-.862.315-.355.02-.649-.06-.883-.223a.851.851 0 0 1-.365-.7l-.213-4.321-1.603.081.213 4.382c.021.507.163.923.416 1.258ZM346.041 14.8l.801.192.649 2.495 1.705.406-.751-2.78c.396-.07.73-.243.994-.507.264-.263.456-.618.568-1.065a2.245 2.245 0 0 0-.01-1.217 1.972 1.972 0 0 0-.639-.943c-.315-.264-.71-.447-1.187-.568l-2.668-.64-1.552 6.452 1.563.375.527-2.211v.01Zm.72-2.993.771.182c.72.173 1.004.558.862 1.147-.071.294-.213.497-.436.588-.213.091-.497.101-.852.02l-.771-.182.426-1.755ZM351.275 18.948l1.085-.984 1.978 1.166-.335 1.42 1.481.873 1.441-6.857-1.836-1.086-5.305 4.585 1.481.872.01.01Zm3.865-3.49.04.03-.558 2.405-1.318-.771 1.825-1.653.011-.01ZM356.854 22.914l1.106 1.136 3.813-3.733 1.41 1.43.923-.913-3.925-4.006-.923.913 1.41 1.44-3.814 3.733ZM365.405 25.206l1.471 2.648 1.136-.64-2.242-4.047-5.812 3.226 2.252 4.047 1.136-.629-1.461-2.647 1.187-.66 1.359 2.435 1.136-.64-1.349-2.434 1.187-.659ZM323.767 61.032c.345-.304.568-.629.69-.994.121-.365.121-.74.02-1.136-.102-.385-.325-.77-.649-1.146l-1.806-2.06-4.99 4.373 1.055 1.206 1.704-1.5.547.618-.912 2.414 1.156 1.319.994-2.698c.365.162.73.223 1.105.162.376-.06.731-.244 1.076-.548l.01-.01Zm-1.785-1.014c-.234-.05-.467-.203-.71-.477l-.518-.598 1.359-1.197.518.598c.487.558.497 1.035.04 1.44-.233.203-.466.285-.689.234ZM326.8 62.178l2.505 1.694.73-1.075-3.834-2.597-3.712 5.498 3.834 2.597.73-1.076-2.505-1.704.76-1.126 2.313 1.563.73-1.086-2.312-1.562.761-1.126ZM334.721 64.927c-.274-.304-.649-.538-1.116-.7l-2.586-.913-2.201 6.259 1.511.537.69-1.947 1.024.365c.477.172.923.223 1.329.172.406-.05.771-.213 1.065-.466.304-.254.528-.599.68-1.035.152-.426.193-.842.121-1.227a2.046 2.046 0 0 0-.517-1.035v-.01Zm-1.166 1.714c-.102.294-.274.487-.507.599-.234.111-.528.111-.873-.01l-.75-.264.669-1.907.751.264c.345.121.568.294.689.527.122.234.122.497.021.791ZM341.365 65.79a3.329 3.329 0 0 0-1.582-.478 3.252 3.252 0 0 0-1.633.315 2.817 2.817 0 0 0-1.197 1.096c-.305.486-.477 1.105-.518 1.835-.04.73.071 1.35.325 1.877.254.517.609.923 1.075 1.217.467.294.994.446 1.593.477.588.03 1.136-.071 1.623-.315.497-.233.892-.608 1.196-1.095.305-.487.477-1.106.518-1.836.04-.73-.071-1.36-.325-1.876a2.91 2.91 0 0 0-1.075-1.218Zm-.72 4.472c-.284.325-.67.477-1.146.457-.477-.02-.842-.213-1.096-.568-.253-.355-.365-.862-.324-1.511.03-.65.192-1.136.486-1.471.295-.325.67-.477 1.147-.457.476.02.842.213 1.095.568.254.355.365.862.325 1.512-.041.649-.193 1.136-.487 1.47ZM349.409 67.564c.122-.355.132-.76.02-1.207a2.22 2.22 0 0 0-.558-1.075 1.957 1.957 0 0 0-.994-.548c-.395-.09-.831-.08-1.318.04l-2.668.63 1.532 6.461 1.562-.375-.528-2.211.802-.193 1.704 1.927 1.704-.406-1.927-2.14c.314-.243.537-.548.659-.903h.01Zm-1.714-.101c-.152.183-.396.314-.751.396l-.771.182-.416-1.755.771-.182c.72-.173 1.146.04 1.288.639.071.294.031.537-.121.72ZM355.16 62.391l-.629-1.136-4.92 2.698.629 1.147 1.775-.974 2.567 4.676 1.389-.76-2.576-4.677 1.765-.974ZM360.952 59.906c-.477 0-1.004.183-1.572.538l-.497.304c-.264.162-.497.264-.7.304-.203.041-.376 0-.507-.152a.554.554 0 0 1-.142-.487c.03-.192.152-.395.385-.608.223-.213.446-.335.659-.365.213-.02.416.04.589.203l1.105-1.066c-.294-.294-.619-.486-.994-.557a2.13 2.13 0 0 0-1.146.09c-.396.143-.771.386-1.146.741-.365.355-.629.73-.791 1.126a2.222 2.222 0 0 0-.163 1.157c.051.375.223.71.518 1.004.345.365.74.537 1.186.517.447-.02.913-.183 1.42-.487l.609-.365c.325-.193.578-.314.781-.345.203-.04.365 0 .497.142a.595.595 0 0 1 .152.548c-.04.213-.182.436-.405.66-.254.243-.518.385-.792.425-.274.04-.527-.06-.76-.274l-1.106 1.065c.548.548 1.136.792 1.755.71.618-.08 1.227-.405 1.836-.983.598-.579.933-1.157 1.024-1.735.091-.578-.091-1.096-.527-1.552-.365-.375-.791-.568-1.268-.558ZM313.938 38.19a27.283 27.283 0 0 1 2.008-7.294.778.778 0 0 0-.406-1.024.777.777 0 0 0-1.024.406 29.161 29.161 0 0 0-2.12 7.709 28.857 28.857 0 0 0 2.363 15.833.788.788 0 0 0 .71.457c.112 0 .213-.02.325-.071.385-.183.558-.64.385-1.025a27.344 27.344 0 0 1-2.231-14.992h-.01ZM367.95 31.343a.771.771 0 0 0-1.004-.447.784.784 0 0 0-.446 1.005 28.38 28.38 0 0 1 1.603 6.288 27.364 27.364 0 0 1-2.313 15.175.782.782 0 0 0 .375 1.034c.102.051.213.071.325.071a.779.779 0 0 0 .71-.446 28.943 28.943 0 0 0 2.444-16.036 29.707 29.707 0 0 0-1.683-6.644h-.011ZM314.115 102.16a2.66 2.66 0 0 0-.332-.695 2.15 2.15 0 0 0-.49-.528 2.07 2.07 0 0 0-.652-.337 2.615 2.615 0 0 0-.797-.115 2.42 2.42 0 0 0-1.33.379c-.395.253-.707.624-.937 1.113-.228.485-.341 1.081-.341 1.785 0 .707.115 1.306.345 1.794.23.489.545.86.946 1.112.401.253.857.38 1.368.38.474 0 .888-.097 1.24-.29.355-.193.629-.466.822-.818.196-.355.294-.773.294-1.253l.341.064h-2.497v-1.087h3.431v.993c0 .733-.157 1.369-.469 1.909a3.19 3.19 0 0 1-1.287 1.244c-.546.293-1.171.439-1.875.439-.79 0-1.483-.181-2.08-.545-.593-.364-1.056-.879-1.389-1.547-.332-.67-.498-1.466-.498-2.386 0-.696.096-1.321.289-1.875a4.09 4.09 0 0 1 .814-1.411 3.565 3.565 0 0 1 1.24-.89 3.886 3.886 0 0 1 1.564-.312c.472 0 .911.07 1.317.21.409.138.773.336 1.091.592a3.34 3.34 0 0 1 1.223 2.075h-1.351Zm7.126 3.256v-3.831h1.279v6.545h-1.253v-1.134h-.068c-.151.35-.393.641-.725.874-.329.23-.74.345-1.231.345-.421 0-.793-.092-1.117-.277a1.936 1.936 0 0 1-.758-.831c-.182-.366-.273-.819-.273-1.359v-4.163h1.274v4.009c0 .447.124.802.371 1.066s.568.396.963.396c.238 0 .476-.06.711-.179.239-.119.436-.3.593-.541.159-.242.237-.548.234-.92Zm4.895 2.859c-.414 0-.789-.077-1.125-.23a1.898 1.898 0 0 1-.797-.678c-.193-.295-.289-.657-.289-1.086 0-.37.071-.674.213-.912.142-.239.334-.428.575-.567a3.01 3.01 0 0 1 .81-.315c.298-.071.602-.125.912-.162l.954-.111c.245-.031.422-.081.533-.149.111-.069.166-.179.166-.333v-.03c0-.372-.105-.66-.315-.865-.208-.204-.517-.306-.929-.306-.429 0-.767.095-1.014.285-.245.188-.414.396-.508.627l-1.197-.273c.142-.398.349-.719.622-.963a2.53 2.53 0 0 1 .95-.537 3.703 3.703 0 0 1 1.13-.171c.261 0 .538.032.831.094.295.06.571.171.826.332.259.162.471.394.635.695.165.298.247.686.247 1.163v4.347h-1.244v-.895h-.051a1.798 1.798 0 0 1-.371.486 1.956 1.956 0 0 1-.635.396 2.463 2.463 0 0 1-.929.158Zm.277-1.023c.353 0 .654-.069.904-.209.253-.139.444-.321.575-.545.134-.227.2-.47.2-.729v-.844c-.045.046-.133.089-.264.128-.128.037-.274.07-.439.098l-.481.073-.392.051a3.135 3.135 0 0 0-.678.158c-.202.073-.364.18-.486.319-.119.137-.179.318-.179.546 0 .315.117.554.35.716.233.159.53.238.89.238Zm4.651.878v-6.545h1.231v1.039h.068c.12-.352.33-.629.631-.831a1.809 1.809 0 0 1 1.031-.306 5.012 5.012 0 0 1 .541.029v1.219a2.312 2.312 0 0 0-.272-.047 2.597 2.597 0 0 0-.392-.03c-.302 0-.57.064-.806.192a1.423 1.423 0 0 0-.758 1.283v3.997h-1.274Zm6.451.145c-.415 0-.79-.077-1.125-.23a1.892 1.892 0 0 1-.797-.678c-.193-.295-.289-.657-.289-1.086 0-.37.071-.674.213-.912.142-.239.333-.428.575-.567.241-.139.511-.244.81-.315.298-.071.602-.125.912-.162l.954-.111c.244-.031.422-.081.533-.149.111-.069.166-.179.166-.333v-.03c0-.372-.105-.66-.315-.865-.208-.204-.517-.306-.929-.306-.429 0-.767.095-1.015.285-.244.188-.413.396-.507.627l-1.197-.273c.142-.398.349-.719.622-.963a2.53 2.53 0 0 1 .95-.537 3.703 3.703 0 0 1 1.13-.171c.261 0 .538.032.831.094.295.06.571.171.826.332.259.162.47.394.635.695.165.298.247.686.247 1.163v4.347h-1.244v-.895h-.051a1.798 1.798 0 0 1-.371.486 1.966 1.966 0 0 1-.635.396 2.463 2.463 0 0 1-.929.158Zm.277-1.023c.353 0 .654-.069.904-.209.253-.139.444-.321.575-.545.133-.227.2-.47.2-.729v-.844c-.045.046-.133.089-.264.128-.128.037-.274.07-.439.098l-.481.073-.392.051a3.135 3.135 0 0 0-.678.158c-.202.073-.364.18-.486.319-.119.137-.179.318-.179.546 0 .315.117.554.35.716.233.159.529.238.89.238Zm5.925-3.008v3.886h-1.275v-6.545h1.223v1.065h.081c.151-.347.387-.625.708-.835.324-.211.731-.316 1.223-.316.446 0 .836.094 1.172.282.335.184.595.46.78.826.184.367.277.82.277 1.36v4.163h-1.275v-4.01c0-.474-.123-.845-.37-1.112-.248-.27-.587-.405-1.019-.405-.295 0-.558.064-.788.192a1.378 1.378 0 0 0-.541.562c-.131.245-.196.54-.196.887Zm8.953-2.659v1.022h-3.576v-1.022h3.576Zm-2.617-1.569h1.274v6.192c0 .247.037.433.111.558a.577.577 0 0 0 .286.252c.119.042.248.064.388.064.102 0 .191-.007.268-.022a7.57 7.57 0 0 0 .179-.034l.23 1.053a2.534 2.534 0 0 1-.827.136 2.237 2.237 0 0 1-.937-.179 1.608 1.608 0 0 1-.703-.579c-.179-.262-.269-.59-.269-.985v-6.456Zm6.777 8.246c-.645 0-1.2-.138-1.666-.413a2.808 2.808 0 0 1-1.074-1.172c-.25-.506-.375-1.098-.375-1.777 0-.671.125-1.261.375-1.773.253-.511.605-.91 1.057-1.197.454-.287.985-.431 1.593-.431.37 0 .728.061 1.074.184.347.122.658.313.934.575.275.261.492.601.652 1.018.159.415.238.919.238 1.513v.452h-5.203v-.955h3.955c0-.335-.069-.632-.205-.89a1.537 1.537 0 0 0-.575-.618 1.607 1.607 0 0 0-.861-.226c-.358 0-.671.088-.938.264a1.774 1.774 0 0 0-.613.682 1.968 1.968 0 0 0-.213.908v.745c0 .438.076.81.23 1.117.156.307.373.541.652.703.278.159.604.239.976.239.241 0 .461-.035.66-.103a1.356 1.356 0 0 0 .848-.831l1.206.218c-.096.355-.27.666-.52.933-.247.264-.558.47-.933.618a3.49 3.49 0 0 1-1.274.217Zm7.043 0c-.645 0-1.2-.138-1.666-.413a2.808 2.808 0 0 1-1.074-1.172c-.25-.506-.375-1.098-.375-1.777 0-.671.125-1.261.375-1.773.253-.511.605-.91 1.057-1.197.454-.287.985-.431 1.593-.431.37 0 .728.061 1.074.184.347.122.658.313.933.575.276.261.493.601.652 1.018.16.415.239.919.239 1.513v.452h-5.203v-.955h3.955c0-.335-.069-.632-.205-.89a1.537 1.537 0 0 0-.575-.618 1.607 1.607 0 0 0-.861-.226c-.358 0-.671.088-.938.264a1.774 1.774 0 0 0-.613.682 1.968 1.968 0 0 0-.213.908v.745c0 .438.076.81.23 1.117.156.307.373.541.652.703.278.159.603.239.976.239.241 0 .461-.035.66-.103a1.368 1.368 0 0 0 .848-.831l1.206.218c-.096.355-.27.666-.52.933-.247.264-.558.47-.933.618a3.49 3.49 0 0 1-1.274.217Zm6.672-.004c-.528 0-1-.135-1.415-.405-.412-.273-.735-.66-.971-1.163-.233-.506-.35-1.113-.35-1.82 0-.707.118-1.312.354-1.815.239-.503.565-.888.98-1.155a2.55 2.55 0 0 1 1.411-.401c.406 0 .733.069.98.205.25.133.443.29.579.469.139.179.247.336.324.473h.077v-3.243h1.274v8.727h-1.244v-1.018h-.107a3.393 3.393 0 0 1-.332.477 1.853 1.853 0 0 1-.588.469c-.25.133-.574.2-.972.2Zm.281-1.087c.367 0 .676-.096.929-.29.256-.196.449-.467.58-.813.133-.347.2-.75.2-1.211 0-.454-.065-.852-.196-1.193a1.757 1.757 0 0 0-.575-.797c-.253-.19-.565-.285-.938-.285-.383 0-.703.099-.958.298-.256.199-.449.47-.58.814a3.314 3.314 0 0 0-.192 1.163c0 .438.066.831.196 1.181.131.349.324.626.58.831.258.201.577.302.954.302Zm-55.223 15.959v-8.727h3.111c.679 0 1.242.123 1.688.37.446.248.779.586 1.001 1.015.222.426.332.906.332 1.44 0 .537-.112 1.02-.336 1.449a2.438 2.438 0 0 1-1.006 1.014c-.446.247-1.007.371-1.683.371h-2.139v-1.117h2.02c.429 0 .777-.074 1.044-.221.267-.151.463-.355.588-.614.125-.258.187-.552.187-.882 0-.33-.062-.622-.187-.878a1.345 1.345 0 0 0-.593-.601c-.267-.145-.619-.217-1.056-.217h-1.654v7.598h-1.317Zm7.574 0v-6.545h1.231v1.039h.069c.119-.352.329-.629.63-.831a1.809 1.809 0 0 1 1.031-.306 5.07 5.07 0 0 1 .542.029v1.219a2.3 2.3 0 0 0-.273-.047 2.587 2.587 0 0 0-.392-.03c-.301 0-.57.064-.805.192a1.425 1.425 0 0 0-.759 1.283v3.997h-1.274Zm7.192.132c-.645 0-1.2-.138-1.666-.413a2.808 2.808 0 0 1-1.074-1.172c-.25-.506-.375-1.098-.375-1.777 0-.671.125-1.261.375-1.773.253-.511.605-.91 1.057-1.197.454-.287.986-.431 1.593-.431.37 0 .728.061 1.074.184.347.122.658.313.934.575.275.261.492.601.652 1.018.159.415.238.919.238 1.513v.452h-5.203v-.955h3.955c0-.335-.069-.632-.205-.89a1.537 1.537 0 0 0-.575-.618 1.605 1.605 0 0 0-.861-.226c-.358 0-.67.088-.938.264a1.774 1.774 0 0 0-.613.682 1.968 1.968 0 0 0-.213.908v.745c0 .438.076.81.23 1.117.156.307.373.541.652.703.278.159.604.239.976.239.241 0 .461-.035.66-.103a1.356 1.356 0 0 0 .848-.831l1.206.218c-.096.355-.27.666-.52.933-.247.264-.558.47-.933.618a3.49 3.49 0 0 1-1.274.217Zm6.979 0c-.634 0-1.179-.143-1.636-.43a2.853 2.853 0 0 1-1.049-1.198c-.244-.508-.366-1.091-.366-1.747 0-.665.125-1.251.375-1.76.25-.511.602-.91 1.057-1.197.454-.287.99-.431 1.606-.431.497 0 .941.093 1.33.277.389.182.703.438.942.767.241.33.384.715.43 1.155h-1.24a1.483 1.483 0 0 0-.469-.792c-.241-.222-.565-.333-.971-.333-.356 0-.667.094-.934.281-.264.185-.47.449-.618.793-.147.341-.221.744-.221 1.21 0 .478.072.889.217 1.236.145.347.35.615.614.805.267.191.581.286.942.286.241 0 .46-.044.656-.132a1.33 1.33 0 0 0 .498-.388c.137-.168.232-.369.286-.605h1.24a2.421 2.421 0 0 1-.413 1.134 2.397 2.397 0 0 1-.925.784c-.384.19-.834.285-1.351.285Zm4.052-.132v-6.545h1.274v6.545H341.4Zm.643-7.555a.808.808 0 0 1-.571-.222.722.722 0 0 1-.234-.537c0-.21.078-.389.234-.537a.803.803 0 0 1 .571-.226.79.79 0 0 1 .567.226.706.706 0 0 1 .238.537.716.716 0 0 1-.238.537.795.795 0 0 1-.567.222Zm7.25 2.608-1.155.204a1.388 1.388 0 0 0-.23-.422 1.15 1.15 0 0 0-.418-.328 1.513 1.513 0 0 0-.66-.128c-.361 0-.662.081-.904.243-.241.159-.362.365-.362.618a.65.65 0 0 0 .243.528c.162.134.423.243.784.329l1.04.238c.602.139 1.051.354 1.346.644.296.289.443.666.443 1.129 0 .392-.113.741-.34 1.048-.225.304-.539.543-.942.716-.401.173-.865.26-1.394.26-.733 0-1.331-.156-1.794-.469-.463-.315-.747-.762-.852-1.342l1.232-.187c.076.321.234.563.473.728.238.162.549.243.933.243.417 0 .751-.087 1.001-.26.25-.176.375-.39.375-.643a.666.666 0 0 0-.23-.516c-.15-.139-.382-.244-.694-.315l-1.108-.243c-.611-.139-1.063-.361-1.356-.665-.289-.304-.434-.689-.434-1.155 0-.386.108-.724.324-1.014.216-.29.514-.516.895-.678.38-.164.816-.247 1.308-.247.707 0 1.264.154 1.67.461.406.304.675.711.806 1.223Zm1.528 4.947v-6.545h1.275v6.545h-1.275Zm.644-7.555a.808.808 0 0 1-.571-.222.723.723 0 0 1-.235-.537c0-.21.079-.389.235-.537a.803.803 0 0 1 .571-.226c.221 0 .41.076.567.226a.706.706 0 0 1 .238.537.716.716 0 0 1-.238.537.797.797 0 0 1-.567.222Zm5.102 7.687c-.614 0-1.149-.141-1.607-.422a2.843 2.843 0 0 1-1.065-1.18c-.253-.506-.379-1.097-.379-1.773 0-.679.126-1.273.379-1.781a2.839 2.839 0 0 1 1.065-1.185c.458-.281.993-.422 1.607-.422.613 0 1.149.141 1.606.422.458.281.813.676 1.066 1.185.252.508.379 1.102.379 1.781 0 .676-.127 1.267-.379 1.773a2.839 2.839 0 0 1-1.066 1.18c-.457.281-.993.422-1.606.422Zm.004-1.069c.398 0 .727-.106.989-.316.261-.21.454-.49.579-.839a3.34 3.34 0 0 0 .192-1.155c0-.418-.064-.801-.192-1.151a1.877 1.877 0 0 0-.579-.848c-.262-.213-.591-.319-.989-.319-.401 0-.733.106-.997.319a1.91 1.91 0 0 0-.584.848c-.125.35-.187.733-.187 1.151 0 .42.062.805.187 1.155.128.349.323.629.584.839.264.21.596.316.997.316Zm5.743-2.949v3.886h-1.274v-6.545h1.223v1.065h.081c.151-.347.386-.625.707-.835.324-.211.732-.316 1.224-.316.446 0 .836.094 1.171.282.336.184.596.46.78.826.185.367.277.82.277 1.36v4.163h-1.274v-4.01c0-.474-.124-.845-.371-1.112-.247-.27-.586-.405-1.018-.405-.296 0-.558.064-.789.192a1.384 1.384 0 0 0-.541.562c-.13.245-.196.54-.196.887Z"/></svg>