<svg xmlns="http://www.w3.org/2000/svg" width="58" height="58" fill="none" viewBox="0 0 58 58"><g id="Group 1171279120"><path id="Rectangle 19158931" fill="#E5EEFF" d="M0 0h58v58H0z"/><g id="Group 1171279119"><path id="Vector" fill="#000" d="M34.754 52.544H13.046C8.609 52.544 5 48.934 5 44.498V10.046C5 5.609 8.609 2 13.046 2H32.09c.168 0 .33.063.454.177l11.824 10.791c.14.129.22.307.22.497v4.413a.672.672 0 1 1-1.346 0v-4.117L31.829 3.348H13.046a6.707 6.707 0 0 0-6.7 6.699v34.452a6.707 6.707 0 0 0 6.7 6.699h21.708a.673.673 0 1 1 0 1.347Z"/><path id="Vector_2" fill="#000" d="M33.646 30.463h-16.88a.672.672 0 1 1 0-1.347h16.88a.672.672 0 1 1 0 1.347Z"/><path id="Vector_3" fill="#000" d="M33.626 36.57h-16.86a.672.672 0 1 1 0-1.347h16.858a.673.673 0 1 1 0 1.347h.002Z"/><path id="Vector_4" fill="#000" d="M33.415 42.675h-16.65a.672.672 0 1 1 0-1.346h16.65a.672.672 0 1 1 0 1.346Z"/><path id="Vector_5" fill="#000" d="M34.84 17.31H16.765a.672.672 0 1 1 0-1.347H34.84a.673.673 0 1 1 0 1.347Z"/><path id="Vector_6" fill="#000" d="M31.724 23.883H16.765a.672.672 0 1 1 0-1.347h14.956a.672.672 0 1 1 0 1.347h.003Z"/><path id="Vector_7" fill="#0049D1" d="M31.597 4.062c-.153-.135-.399-.035-.399.17l-.111 6.468c-.042 2.667 1.347 3.58 4.012 3.58l7.366-.017c.117 0 .178-.153.093-.229L31.606 4.07l-.008-.008Z"/><path id="Vector_8" fill="#0049D1" d="M11.773 17.597a.456.456 0 0 1-.318-.13l-.809-.809a.45.45 0 0 1 0-.634.45.45 0 0 1 .634 0l.49.49 1.57-1.575a.446.446 0 0 1 .634 0 .446.446 0 0 1 0 .634l-1.885 1.893a.449.449 0 0 1-.318.133l.002-.002Z"/><path id="Vector_9" fill="#0049D1" d="M11.773 24.16a.452.452 0 0 1-.318-.13l-.809-.809a.45.45 0 0 1 0-.634.45.45 0 0 1 .634 0l.49.49 1.57-1.569a.45.45 0 0 1 .634 0 .45.45 0 0 1 0 .634l-1.885 1.885a.449.449 0 0 1-.318.131l.002.002Z"/><path id="Vector_10" fill="#0049D1" d="M11.773 30.742a.452.452 0 0 1-.318-.13l-.809-.809a.45.45 0 0 1 0-.634.45.45 0 0 1 .634 0l.49.49 1.57-1.569a.45.45 0 0 1 .634 0 .45.45 0 0 1 0 .634l-1.885 1.886a.449.449 0 0 1-.318.13l.002.002Z"/><path id="Vector_11" fill="#0049D1" d="M11.773 36.848a.456.456 0 0 1-.318-.131l-.809-.809a.45.45 0 0 1 0-.634.45.45 0 0 1 .634 0l.49.49 1.57-1.568a.45.45 0 0 1 .634 0 .45.45 0 0 1 0 .634l-1.885 1.885a.447.447 0 0 1-.318.13l.002.003Z"/><path id="Vector_12" fill="#0049D1" d="M11.773 42.962a.453.453 0 0 1-.318-.13l-.809-.81a.45.45 0 0 1 0-.633.45.45 0 0 1 .634 0l.49.49 1.57-1.569a.45.45 0 0 1 .634 0 .45.45 0 0 1 0 .634l-1.885 1.885a.449.449 0 0 1-.318.13l.002.003Z"/><path id="Vector_13" fill="#000" d="M42.714 54h-.62a5.77 5.77 0 0 1-5.763-5.765V26.157a.672.672 0 0 1 .665-.782h10.81c.373 0 .674.3.674.673v22.187a5.77 5.77 0 0 1-5.764 5.764h-.002ZM37.678 26.72v21.514a4.421 4.421 0 0 0 4.417 4.417h.619a4.421 4.421 0 0 0 4.417-4.417V26.721h-9.456.003Z"/><path id="Vector_14" fill="#000" d="M47.615 26.58H37.181a3.04 3.04 0 0 1-3.036-3.036v-.288a3.04 3.04 0 0 1 3.036-3.035h10.434a3.04 3.04 0 0 1 3.036 3.035v.288a3.04 3.04 0 0 1-3.036 3.036Zm-10.434-5.01a1.69 1.69 0 0 0-1.689 1.689v.287c0 .93.756 1.69 1.689 1.69h10.434a1.69 1.69 0 0 0 1.69-1.69v-.287a1.69 1.69 0 0 0-1.69-1.69H37.181Z"/><path id="Vector_15" fill="#000" d="M39.884 47.918h-2.057a.672.672 0 1 1 0-1.346h2.057c.673 0 1.22-.404 1.22-.898V35.33c0-.486-.56-.898-1.22-.898h-2.057a.672.672 0 1 1 0-1.347h2.057c1.416 0 2.567 1.007 2.567 2.245v10.343c0 1.237-1.153 2.244-2.567 2.244Z"/><path id="Vector_16" fill="#000" d="M38.197 26.12a.672.672 0 0 1-.674-.673v-1.67a.672.672 0 1 1 1.347 0v1.67c0 .373-.3.673-.673.673Z"/><path id="Vector_17" fill="#000" d="M40.964 26.12a.672.672 0 0 1-.674-.673v-1.67a.672.672 0 1 1 1.347 0v1.67c0 .373-.3.673-.673.673Z"/><path id="Vector_18" fill="#000" d="M43.741 26.12a.672.672 0 0 1-.673-.673v-1.67a.672.672 0 1 1 1.346 0v1.67c0 .373-.3.673-.673.673Z"/><path id="Vector_19" fill="#000" d="M46.504 26.12a.672.672 0 0 1-.673-.673v-1.67a.672.672 0 1 1 1.347 0v1.67c0 .373-.301.673-.674.673Z"/><path id="Vector_20" fill="#0049D1" d="M38.19 27.24h8.338V48.1a4.168 4.168 0 0 1-4.169 4.17c-2.303 0-4.169-1.43-4.169-3.734v.011h1.966a2.9 2.9 0 0 0 2.892-2.892V35.58a2.953 2.953 0 0 0-2.944-2.944h-1.962s.046-5.583.046-5.396h.002Z"/></g></g></svg>